# xmcd
#
# Track frame offsets:
#	150
#	15117
#	38635
#	57872
#	78565
#	91835
#	111830
#	129947
#	146225
#	158602
#	175312
#	196137
#	220315
#	236990
#	253982
#	270965
#	296962
#
# Disc length: 3971 seconds
#
# Revision: 1
# Processed by: cddbd v1.5.2PL0 Copyright (c) Steve Scherf et al.
# Submitted via: audiograbber 1.83.01
#
DISCID=ed0f8111
DTITLE=Various Artist - THE GRASS IS BLUE VOL 2 SC 8751
DYEAR=1900
DGENRE=BLUE GRASS
TTITLE0=PATTY LOVELESS - SOUL OF CONSTANT SORROW
TTITLE1=NICKEL CREEK - THE LIGHTHOUSE'S TALE
TTITLE2=VINCE GILL - THE KEY TO LIFE
TTITLE3=PURE PRAIRIE LEAGUE - AMIE
TTITLE4=GARTH BROOKS - CALLIN' BATON ROUGE
TTITLE5=GARTH BROOKS - DON'T CROSS THE RIVER
TTITLE6=NICKEL CREEK - WHEN YOU COME BACK DOWN
TTITLE7=LEE ANN WOMACK - DOES MY RING BURN YOUR FINGER
TTITLE8=PATTY LOVELESS - THE BOYS ARE BACK IN TOWN
TTITLE9=DOLLY PARTON - SEVEN BRIDGES ROAD
TTITLE10=TRIO - HIGH SIERRA
TTITLE11=DOLLY PARTON - SHINE
TTITLE12=ALISON KRAUSS AND UNION STATION - TWO HIGHWAYS
TTITLE13=THE GOGGY BOTTOM BOYS - IN THE JAILHOUSE NOW
TTITLE14=PATTY LOVELESS AND TRAVIS TRITT - OUT OF CONTROL RAGING FIRE
TTITLE15=ALISON KRAUSS - DOWN TO THE RIVER TO PRAY
TTITLE16=DATA TRACK - Data Track
EXTD=
EXTT0=
EXTT1=
EXTT2=
EXTT3=
EXTT4=
EXTT5=
EXTT6=
EXTT7=
EXTT8=
EXTT9=
EXTT10=
EXTT11=
EXTT12=
EXTT13=
EXTT14=
EXTT15=
EXTT16=
PLAYORDER=
